<?xml version="1.0" encoding="utf-8"?>
<!-- Generator: Adobe Illustrator 22.1.0, SVG Export Plug-In . SVG Version: 6.00 Build 0)  -->
<svg version="1.1" id="Layer_1" xmlns="http://www.w3.org/2000/svg" xmlns:xlink="http://www.w3.org/1999/xlink" x="0px" y="0px"
	 viewBox="0 0 500 500" style="enable-background:new 0 0 500 500;" xml:space="preserve">
<style type="text/css">
	.st0{fill:#FFFFFF;}
</style>
<path d="M381.1,186.6c0.2-1.1,0.3-2.1,0.5-3.1c0.5,1,0,2,0,3.1c0.6,0.1,1.3,0.2,1.9,0.2c4,0.3,7.9,0.8,11.9,1
	c8.4,0.4,16.7,1.2,25.1,0.8c2.9-0.1,5.9,0.1,8.8,0.1c0.6,0,1.2-0.1,1.7-0.5c0.9-0.7,2-0.8,3-0.3c0.4,0.2,0.8,0.2,1.3,0.2
	c0.6-0.1,1.2,0,1.8,0c0.7,0.1,1.4,0.1,2.1-0.2c0.4-0.2,0.9-0.2,1.3-0.2c2.8,0,5.5-0.2,8.3-0.7c1.4-0.3,2.9-0.4,4.4-0.6
	c0.2,0,0.4-0.1,0.6-0.2c0.7-0.2,1.3-0.6,2-0.7c0.6,0,1.2,0.4,1.8,0.7c0.2,0.1,0.3,0.1,0.5,0.2c1,0.2,1.6,0.5,2.2,1.1
	c-0.2,0.2-0.4,0.3-0.6,0.5c0.4,0.6,1.1,0,1.9-1.4c0.7-0.1,1.5-0.3,2.2-0.4c1.2-0.2,2.5,0.2,3.6,1c1.1-0.1,2-0.1,3-0.2
	c0.9-0.1,1.8-0.3,2.9-0.4c0,0.4,0,0.8-0.1,1.2c-0.1,0.7-0.3,1.3-0.4,1.9c-0.1,1.1-0.1,2.1,0.4,3.1c0.4,0.9,0.5,1.9,0.6,2.9
	c0.3,3.7,0.5,7.3,0.8,11c0.3,3.5,0.4,7.1,1.2,10.6c0.4,1.6,0.3,3.3,0.4,4.9c0.2,2.6,0.4,5.2,0.4,7.8c0,2.4-0.3,4.8-0.2,7.2
	c0.1,3.1,0.3,6.3,0.6,9.4c0.2,2.1,0.7,4.2,0.9,6.2c0.2,1.3,0.2,2.6,0.3,3.9c0.3,2.9,0.6,5.7,0.9,8.6c0.1,1.4,0.3,2.9,0.3,4.3
	c0.1,3.2,0,6.4,0,9.5c0,1.6,0.1,3.3-0.2,4.8c-0.5,2.6-0.5,5.2-0.6,7.8c-0.1,1.3-0.5,2.6-1.5,3.6c-0.7,0.8-1.5,1.6-2.2,2.3
	c-0.9,0.8-1.7,1.6-2.6,2.5c-0.6,0.6-1.1,1.5-2.1,1.6c-0.1,0-0.3,0.2-0.3,0.3c-0.5,0.9-1.2,1.3-2.2,1.2c-0.2,0-0.5,0.1-0.7,0.2
	c-1.6,1.1-3.4,1.8-5.2,2.2c-3.2,0.5-6.2,1.6-9.2,2.5c-3.2,1-6.5,1.9-9.8,2.5c-2.3,0.4-4.6,0.6-6.9,0.6c-2,0-3.9,0.4-5.9,0.9
	c-3.2,0.7-6.5,1.2-9.7,1.8c-5.2,0.9-10.5,1.5-15.7,1.9c-2.7,0.2-5.3-0.1-7.9-0.5c-4.8-0.6-9.6-0.5-14.5-0.5c-0.7,0-1.3-0.1-2-0.2
	c-0.6,0-1.2-0.2-1.7,0c-1.6,0.5-3.1,0.2-4.7,0c-3.2-0.4-6.3-0.8-9.5-1.2c-5.9-0.7-11.9-0.6-17.8-0.2c-2.8,0.2-5.7,0.4-8.5,0.6
	c-1.2,0.1-2.5-0.1-3.6,0.3c-1.4,0.5-2.8,0.2-4.1,0.7c-0.2,0.1-0.4,0.1-0.6,0.1c-2.2,0.1-4.5,0.2-6.7,0.3c-1.6,0-3.4-0.3-4.9,0.1
	c-1.7,0.4-3.3,0.2-5,0.3c-0.2,0-0.4,0.1-0.6,0.1c-0.4,0.1-0.9,0.3-1.3,0.3c-2.5-0.2-4.9-0.1-7.4,0.1c-0.6,0.1-1.2,0.2-1.8,0.2
	c-1.3,0.1-2.6,0.2-3.9,0.1c-2.4-0.2-4.8-0.1-7.2,0c-4.6,0.2-9.2,0.4-13.7,0.7c-2.9,0.2-5.7,0.7-8.6,1c-1.4,0.2-2.9,0.3-4.3,0.4
	c-2.5,0.1-4.9,0.5-7.4,1c-1.4,0.3-3,0.2-4.4,0.2c-3.4,0.1-6.9,0.2-10.3,0.3c-2.5,0.1-5,0.1-7.6,0.2c-2.9,0.2-5.7,0.6-8.6,0.9
	c-1.9,0.2-3.9,0.4-5.8,0.3c-5.4-0.2-10.8-0.3-16.2,0.4c-3.9,0.5-7.8,0.5-11.8,0.5c-1.5,0-3.1,0-4.6,0.3c-1.3,0.3-2.7,0.4-4,0.6
	c-2.5,0.3-5,0.6-7.5,0.9c-2.4,0.3-4.8,0.3-7.1,0.7c-2.7,0.4-5.4,0.5-8.1,0.7c-2.2,0.2-4.3,0.6-6.5,0.8c-3.8,0.4-7.6,0.8-11.3,1.2
	c-6.4,0.7-12.8,0.4-19.2,0.6c-8.4,0.3-16.8,0.5-25.2,0.3c-2.2,0-4.4-0.2-6.6-0.2c-0.3,0-0.8-0.1-1,0.1c-0.8,0.8-1.8,0.7-2.8,0.6
	c-2.1-0.1-4.3-0.5-6.4-0.5c-3.4,0-6.8-0.1-10.2,0.4c-2.7,0.4-5.4,0.8-8.1,1.2c-3.3,0.5-6.6,0.9-9.8,1.5c-2.8,0.5-5.6,1.3-8.4,2
	c-1.4,0.4-2.9,0.7-4.3,1.1c-0.7,0.2-1.3,0.4-1.6,1.2c-0.4,1-1.5,1.2-2.2,0.4c-0.6-0.7-1.1-0.8-1.9-0.6c-0.4,0.1-0.9-0.1-1.4-0.2
	c-1-0.2-1.9-0.5-2.9-0.6c-1.7-0.1-2.6-1.7-1.9-3.2c0.3-0.6,0.4-1.3,0.4-1.9c0-6.4-0.1-12.9-0.2-19.3c0-1.7,0-3.4,0.1-5.1
	c0.3-3.4-0.1-6.8-0.2-10.2c-0.1-2.2-0.2-4.4-0.2-6.6c0-3.9,0-7.8,0-11.7c0-2.8-0.3-5.5-0.2-8.3c0.1-4.1,0.4-8.2,0.8-12.2
	c0.2-1.8,0.4-3.5,0.4-5.3c0-3.8,0.3-7.5,1-11.2c0.3-1.4,0.4-2.9,0.2-4.3c-0.3-3.2-0.2-6.3,0.3-9.5c0.3-2.2,0.4-4.4,0.6-6.7
	c0.3-3.1,0.7-6.2,1-9.2c0.2-2.2,0.5-4.4,0.7-6.6c0.3-2.2,0.6-4.4,0.9-6.6c0.2-1.2,0.9-2,1.6-2.8c0.2-0.2,0.5-0.4,0.7-0.4
	c1.6-0.3,3.2-0.5,4.8-0.7c1.6-0.3,3.2-0.5,4.8-0.8c3.2-0.6,6.4-1.3,9.6-1.9c5.1-0.9,10.3-0.9,15.4-1c0.6,0,1.3-0.2,1.9-0.3
	c0.7-0.1,1.4-0.3,2.1-0.3c3.9,0.1,7.8,0.2,11.8,0.3c5.5,0.2,11,0.7,16.5,0.2c2.3-0.2,4.5-0.5,6.8-0.8c2.5-0.3,5-0.8,7.5-1.1
	c1-0.1,2-0.3,3-0.3c3.9,0,7.8-0.1,11.8-0.5c3.6-0.4,7.2-0.5,10.7-0.8c3.9-0.3,7.8-0.6,11.7-0.7c4-0.2,7.9-0.3,11.9-0.3
	c4.1,0,8.3,0.3,12.4,0.3c3.3,0,6.7-0.1,10-0.2c3.8-0.1,7.6-0.3,11.4-0.5c4.3-0.2,8.7-0.6,13-0.8c4-0.3,7.9-0.5,11.9-0.8
	c3.5-0.3,7-0.5,10.5-0.9c2-0.3,3.9-1,5.9-1.4c2.8-0.6,5.5-0.9,8.4-0.9c2.1,0,4.1-0.2,6.2-0.3c6.6-0.3,13.1-0.7,19.7-0.4
	c1.2,0.1,2.3,0,3.5,0c3.3,0,6.6,0.2,9.8,1c1.3,0.3,2.6,0.5,3.9,0.6c3.7,0.2,7.4,0.4,11.1,0.6c3,0.2,6,0.3,9,0.5
	c4.9,0.3,9.9,0.7,14.8,1.1c3.5,0.3,7.1,0.6,10.6,0.9c1.5,0.1,3.1,0.2,4.6,0.2c3.9,0,7.8,0.5,11.7,1.2c2.8,0.5,5.7,0.7,8.5,0.9
	c3.4,0.2,6.8,0.2,10.2,0.3c1.6,0.1,3.2,0.4,4.8,0.5C379.8,186.5,380.4,186.6,381.1,186.6z M39,199c-0.3,2.8-0.5,5.5-0.8,8.1
	c-0.3,2.8-0.6,5.7-0.9,8.5c-0.4,3.6-0.7,7.2-0.5,10.8c0.3,6,0.2,12-0.2,18c-0.4,4.8-0.7,9.6-1.1,14.5c0,0.5,0.1,1.1,0.2,1.6
	c0.1,1.4,0.2,2.8,0.1,4.2c0,1.2-0.3,2.4-0.3,3.6c0.1,1.6,0.5,3.2-0.2,4.8c0,0.1,0,0.2,0,0.2c0.1,2.7,0.2,5.3,0.3,8
	c0,0.8,0.2,1.6,0.3,2.5c0.4,3,0.8,6,1.2,9c0.2,1.6,0.5,3.1,0.5,4.7c0.1,2.5,0.2,5,0.3,7.5c0.1,1.9,0.2,3.7,0.4,5.6
	c0.3,3.7,0.9,7.5,0.7,11.2c-0.1,1.7,0,3.4,0,5.1c0,0.3,0,0.9,0.2,0.9c0.7,0.1,0.4,0.9,0.8,1.2c3.9-0.6,7.7-1.3,11.6-1.9
	c3.9-0.6,7.7-1.2,11.6-1.8c3.9-0.5,7.8-0.7,11.7-1.2c-0.2-1-0.5-1.7-0.6-2.5c-0.3-3.5-0.6-7.1-0.7-10.6c-0.2-5.8-0.4-11.6-0.4-17.5
	c0-5.1,0.3-10.2,0.4-15.4c0.1-3.3,0.1-6.6,0.1-9.9c0-3.4-0.8-6.7-0.3-10.1c0-0.2,0-0.4,0-0.6c-0.2-4.1-0.4-8.2-0.5-12.3
	c-0.1-6-0.4-11.9-1.3-17.8c-0.8-5.2-0.9-10.4-0.4-15.6c0.4-4.2,1-8.5,0.6-12.7c-0.1-1.3,0.6-2.2,1.5-3c0.7-0.6,2.3-0.5,2.7,0.2
	c0.3,0.6,0.6,1.2,0.7,1.8c0.1,2,0.2,4,0.1,6.1c-0.1,2-0.5,4-0.6,6c-0.3,4.2-0.6,8.5-0.1,12.7c0.4,3.1,0.6,6.2,1,9.4
	c0.1,1.1,0.4,2.1,0.4,3.2c0.1,1.2,0,2.5,0,3.7c0.1,3.6,0.2,7.1,0.3,10.7c0.1,3.2,0.3,6.3,0.5,9.5c0,0.5,0.1,1.1,0.2,1.6
	c0,0.9-0.1,1.9,0,2.8c0.1,2.6,0.3,5.3,0.4,7.9c0,4.2-0.1,8.4,0,12.6c0,3.5,0.1,6.9-0.2,10.4c-0.2,1.8-0.3,3.6-0.4,5.4
	c-0.1,1,0,2,0.1,3c0.1,0.8,0.4,1.5,0.4,2.3c0.2,3.5,0.3,7.1,0.4,10.6c0.1,2.5,0.3,4.9,0.5,7.5c0.9,0,1.6,0,2.3,0
	c4.4,0,8.7,0,13.1,0.1c5.3,0.1,10.7,0.2,16,0.2c4.1,0,8.3-0.2,12.4-0.2c3.9-0.1,7.9-0.1,11.8-0.1c8.2-0.1,16.3-0.9,24.4-2.1
	c2.2-0.3,4.5-0.6,6.8-0.8c4.4-0.5,8.7-0.9,13.1-1.4c2.5-0.2,5-0.4,7.5-0.6c2.6-0.2,5.1-0.4,7.7-0.6c3.8-0.3,7.7-0.5,11.5-0.9
	c4.4-0.4,8.8-1,13.2-1.3c5.5-0.4,11-0.8,16.6-1.1c5.3-0.3,10.7-0.4,16-0.6c1.8-0.1,3.6-0.1,5.4-0.4c2.9-0.5,5.7-1.1,8.6-1.2
	c0.5,0,0.9-0.1,1.4-0.1c6.9-0.9,13.8-1.8,20.9-1.8c4,0,7.9,0,11.9,0c1.7,0,3.5-0.2,5.2-0.3c2.4-0.2,4.8-0.4,7.1-0.6
	c0.5,0,1,0.1,1.5,0.1c1,0.1,2,0.1,3.1,0.1c5.5-0.1,11.1-0.2,16.6-0.7c2-0.2,4-0.2,6-0.3c2-0.2,3.9-0.5,5.9-0.7
	c2.3-0.2,4.7-0.2,7-0.8c1.9-0.5,3.7-0.5,5.6-0.5c1.2,0,2.3,0.1,3.5,0.1c4.5,0,9.1-0.1,13.6-0.1c1.4,0,2.8,0.1,4.2,0.3
	c1.7,0.2,3.4,0.6,5.1,0.8c4.1,0.4,8.2,0.9,12.4,1c7.1,0.2,14.3,0.1,21.4-0.8c0.6-0.1,1.1-0.2,1.5-0.7c0.6-0.8,1.4-1.4,2.5-1.5
	c1.7-0.1,3.4-0.1,5.1-0.1c1.1,0,1.5-0.1,1.7-1.1c0.3-1.8,0.6-3.6,0.9-5.4c0.1-0.3,0-0.7,0-1c-0.1-1-0.2-2.1-0.2-3.1
	c0-1.6,0.2-3.2,0.3-4.8c0-0.3,0-0.6,0-1c-0.1-0.5-0.2-1-0.2-1.4c-0.1-1.1-0.2-2.3-0.3-3.5c-0.1-0.9-0.3-1.7-0.3-2.6
	c-0.1-3.7-0.2-7.4-0.3-11.1c0-1-0.1-2-0.1-3c0-0.3,0-0.6,0.1-0.8c0.4-0.5,0.3-1.1,0.2-1.7c-0.1-1.6-0.2-3.3-0.3-4.9
	c0-0.3,0-0.7-0.1-1c-0.5-1-0.4-2.1-0.5-3.2c-0.1-1.8-0.4-3.6-0.5-5.4c0-0.5,0-1,0-1.5c0.1-0.6,0.3-1.2,0.3-1.8
	c0-4.9-0.1-9.8-0.1-14.6c0-3.4,0.1-6.8,0.1-10.2c0-1.6,0-3.2,0-4.8c0.1-3.3,0.3-6.5,0.4-9.8c0-1.2,0-2.3,0.2-3.5
	c0.2-0.9,0.2-1.7,0.1-2.7c-0.1-1.6-0.3-3.3,0.2-4.9c0.1-0.3-0.1-0.7-0.2-1c-0.2-0.4-0.4-0.7-0.6-1.1c-0.3,0-0.6,0-1,0
	c-2.7,0.1-5.4,0.2-8,0.1c-4.5-0.2-9.1-0.5-13.6-0.8c-5.8-0.4-11.6-0.8-17.4-1.2c-5-0.4-10.1-0.8-15.1-1.1c-4-0.3-8-0.4-12-0.7
	c-3.4-0.2-6.8-0.6-10.2-0.9c-6-0.4-11.9-0.8-17.9-1.2c-3.3-0.2-6.6-0.5-9.9-0.8c-3.3-0.2-6.7-0.5-10-0.6c-5.2-0.3-10.3-0.5-15.5-0.7
	c-0.9,0-1.7,0.1-2.2-0.9c-0.1-0.1-0.2-0.2-0.4-0.3c-1.2-0.7-2.5-1.1-4-1.1c-1.9,0-3.7,0-5.6-0.3c-2.8-0.4-5.6-0.6-8.4-0.4
	c-0.6,0-1.2,0.1-1.9,0.1c-5.5-0.2-11-0.6-16.5-0.4c-4,0.1-8,0-12,0.7c-3.3,0.6-6.5,1.4-9.7,2.5c-1.2,0.4-2.4,0.7-3.6,0.9
	c-4.3,0.7-8.6,0.4-12.9,0.7c-3,0.2-6.1,0.2-9.2,0.3c-3.1,0.1-6.2,0.3-9.3,0.5c-3.4,0.2-6.8,0.4-10.1,0.7c-4.8,0.3-9.6,0.7-14.5,0.9
	c-2.6,0.1-5.1-0.3-7.7-0.2c-5.9,0.2-11.8,0.4-17.7,0.8c-6.8,0.4-13.6,1.1-20.4,1.6c-4.1,0.3-8.2,0.6-12.4,0.9
	c-3.6,0.2-7.2,0.4-10.8,0.7c-3.6,0.3-7.2,0.7-10.9,0.6c-3.2-0.1-6.4-0.1-9.5-0.2c-3.3-0.1-6.6-0.3-9.9-0.3c-3.8,0-7.6,0-11.4,0.1
	c-2.9,0.1-5.8,0.1-8.6,0.7c-3,0.6-6,1.1-9,1.8c-2.5,0.6-5,1.1-7.6,1.2C40.7,198.8,39.9,198.9,39,199z M470.4,293.3
	c0-1.5,0.1-2.8,0.1-4.2c0.1-5.5-0.1-10.9-0.4-16.3c-0.2-4.1-0.2-8.2-0.7-12.3c-0.3-2.7-0.7-5.4-0.9-8.1c-0.2-2.5-0.3-4.9-0.4-7.4
	c-0.1-2.3-0.5-4.6-1-6.8c-0.5-2.3-1-4.6-1.1-7c-0.3-5.7-0.3-11.4-0.5-17.1c-0.1-3.1-0.3-6.3-0.5-9.4c-0.2-3.1-0.4-6.2-0.5-9.3
	c-0.1-1-0.2-2.1-0.2-3.1c-1.1,1.4-2.4,2.4-3.8,3.1c-2.2,1-4.5,1.4-6.8,1.5c-2.7,0.2-5.5-0.2-8.2,0.6c-0.5,0.2-1.1,0-1.7,0
	c-1.1,0.1-2.2,0-3.1,0.4c-0.9,0.4-1.7,0.8-2.6,1.1c-0.6,0.2-1,0.2-1.6-0.2c-1.8-1.1-3.8,0-3.8,2.2c0,0.9,0.1,1.8,0.1,2.7
	c0,1.3,0.3,2.6,0,3.8c-0.5,2-0.4,4.1-0.7,6.1c-0.3,2.7-0.5,5.5-0.7,8.3c0,0.6-0.1,1.2,0,1.9c0.4,2.8,0.7,5.5,0.5,8.4
	c-0.3,3-0.2,6.1-0.2,9.2c0,5,0,10,0.3,15c0.2,2.9,0.3,5.8,0.5,8.8c0.2,3.5,0.4,7.1,0.7,10.6c0.2,3,0.7,5.9,0.9,8.9
	c0.3,3.2,0.7,6.4,0.6,9.6c0,0.7,0.1,1.4,0.2,2.1c0.1,0.8,0.2,1.6,0.2,2.3c0.1,1.1,0.2,2.1,0.3,3.1c1.7-0.1,3.2-0.1,4.8-0.2
	c2.9-0.1,5.7-0.5,8.5-1.3c2-0.6,4.1-1.1,6.1-1.5c3.8-0.7,7.5-1.7,10.7-4c0.1-0.1,0.2-0.1,0.3-0.2C467,293.7,468.5,293,470.4,293.3z
	 M76.5,236.3c0,0.1,0,0.2,0.1,0.3c0.2,0,0.5-0.1,0.7-0.1c0,0,0-0.2-0.1-0.3C76.9,236.2,76.7,236.3,76.5,236.3z"/>
<path class="st0" d="M470.4,293.3c-1.9-0.3-3.4,0.4-4.8,1.1c-0.1,0.1-0.2,0.1-0.3,0.2c-3.2,2.3-6.9,3.2-10.7,4
	c-2.1,0.4-4.1,0.9-6.1,1.5c-2.8,0.9-5.6,1.2-8.5,1.3c-1.6,0.1-3.1,0.1-4.8,0.2c-0.1-1-0.2-2-0.3-3.1c-0.1-0.8-0.2-1.6-0.2-2.3
	c-0.1-0.7-0.2-1.4-0.2-2.1c0.1-3.2-0.3-6.4-0.6-9.6c-0.3-3-0.7-5.9-0.9-8.9c-0.3-3.5-0.5-7.1-0.7-10.6c-0.2-2.9-0.3-5.8-0.5-8.8
	c-0.3-5-0.3-10-0.3-15c0-3.1-0.1-6.1,0.2-9.2c0.3-2.8-0.1-5.6-0.5-8.4c-0.1-0.6-0.1-1.2,0-1.9c0.2-2.8,0.3-5.5,0.7-8.3
	c0.3-2,0.2-4.1,0.7-6.1c0.3-1.2,0-2.5,0-3.8c0-0.9-0.1-1.8-0.1-2.7c0-2.1,2-3.3,3.8-2.2c0.6,0.3,1,0.4,1.6,0.2
	c0.9-0.3,1.7-0.7,2.6-1.1c0.9-0.4,2.1-0.3,3.1-0.4c0.6,0,1.2,0.2,1.7,0c2.7-0.8,5.5-0.4,8.2-0.6c2.4-0.2,4.7-0.5,6.8-1.5
	c1.5-0.7,2.7-1.7,3.8-3.1c0.1,1,0.2,2.1,0.2,3.1c0.2,3.1,0.4,6.2,0.5,9.3c0.2,3.1,0.4,6.3,0.5,9.4c0.2,5.7,0.3,11.4,0.5,17.1
	c0.1,2.3,0.6,4.7,1.1,7c0.5,2.3,0.9,4.5,1,6.8c0.1,2.5,0.2,5,0.4,7.4c0.2,2.7,0.6,5.4,0.9,8.1c0.5,4.1,0.5,8.2,0.7,12.3
	c0.3,5.4,0.5,10.9,0.4,16.3C470.5,290.5,470.4,291.8,470.4,293.3z"/>
<path class="st0" d="M76.5,236.3c0.2-0.1,0.5-0.1,0.7-0.2c0,0.1,0.1,0.3,0.1,0.3c-0.2,0.1-0.4,0.1-0.7,0.1
	C76.5,236.5,76.5,236.4,76.5,236.3z"/>
<path d="M81.4,313.4c0-1.3,0-2.4,0-3.7c0.2-0.1,0.4-0.1,0.6-0.1c2.8-0.1,5.7-0.2,8.5-0.5c1.4-0.1,2.8-0.4,4.1-0.7
	c3.7-0.8,7.5-1.3,11.3-1.5c9.7-0.6,19.5-1,29.2-1c3.1,0,6.1-0.3,9.1-0.7c2.4-0.3,4.8-0.5,7.2-0.7c4-0.3,8.1-0.5,12.1-0.7
	c3.7-0.2,7.3-0.3,11-0.6c3.4-0.2,6.8-0.5,10.1-0.9c5.4-0.5,10.8-1,16.2-1c9.7,0,19.4-0.2,29.1-0.3c6.4-0.1,12.9-0.1,19.3-0.1
	c0.9,0,1.8,0,2.7-0.3c2.4-0.6,4.8-0.8,7.3-0.6c4.3,0.2,8.5,0,12.8-0.3c2.7-0.2,5.5-0.2,8.2-0.3c3.7-0.2,7.4-0.6,11.1-0.9
	c5.6-0.5,11.2-1,16.8-1.5c4.3-0.3,8.5-1.1,12.7-1.8c3.9-0.7,7.8-1.2,11.6-1.7c1.7-0.2,3.4-0.2,5.1-0.3c4-0.1,8-0.1,12-0.2
	c3.3-0.1,6.7-0.2,10-0.4c2.1-0.1,4.2-0.4,6.3-0.5c2.6-0.1,5.3,0,7.9,0c0.3,0,0.6,0,0.9-0.1c2-0.9,4.2-0.9,6.3-1.4
	c0.4-0.1,0.9-0.1,1.3-0.2c1.8-0.6,3.6-0.5,5.4-0.5c0.6,0,1.2,0.1,1.8,0.2c1.3,0.2,2.6,0.4,3.9-0.3c0.4-0.2,0.9-0.2,1.3-0.2
	c4.1,0,8.3,0.1,12.4,0.1c1.4,0,2.9-0.2,4.3-0.5c1.6-0.4,3.4-0.5,5-0.5c3,0,5.9-0.1,8.9-0.4c0.4,0,0.8,0,1.2,0c0.7,0,1.2,0.3,1.4,1
	c0.2,0.6,0.1,1.1-0.4,1.6c-0.1,0.1-0.3,0.2-0.4,0.4c0.1,0.2,0.1,0.3,0.2,0.5c0.2,1.2-0.3,1.9-1.5,1.9c-1.1,0-2.2-0.3-3.3-0.4
	c-0.9-0.1-1.7-0.2-2.6-0.2c-2.7,0-5.5-0.1-8.2,0c-3.3,0.1-6.5,0.3-9.8,0.5c-2.4,0.1-4.8,0.1-7.2,0.2c-2.8,0.1-5.6,0.4-8.4,0.6
	c-1.4,0.1-2.8,0.1-4.2,0.1c-1,0-1.9,0-2.6,0.9c-0.2,0.2-0.7,0.4-1,0.4c-1.3,0.1-2.6,0.3-3.8,0.3c-3.2,0-6.5-0.2-9.7,0
	c-4.2,0.3-8.4,0.4-12.5,1.4c-2.4,0.6-4.9,0.1-7.3,0c-1.6-0.1-3.1,0-4.7-0.1c-0.5,0-1-0.2-1.4-0.2c-1.1,0-2.2,0-3.3,0.1
	c-0.4,0-0.7,0.4-1.1,0.6c-0.3-0.7-1-0.6-1.7-0.5c-0.7,0.1-1.4,0.2-2.1,0.3c-0.6,0.1-1.1,0.2-1.6,0.6c-0.3,0.2-0.8,0.2-1.2,0.2
	c-2.2-0.2-4.3,0.4-6.5,0.7c-5.1,0.7-10.1,1.6-15.2,1.9c-4.7,0.3-9.3,0.9-13.9,1.3c-4.6,0.5-9.2,0.9-13.8,1.4
	c-5.9,0.6-11.8,0.5-17.7,0.8c-6,0.3-12,0.1-18,0.5c-3.6,0.2-7.2,0-10.8-0.1c-2.1,0-4.2,0-6.3,0c-3.5,0-7,0.2-10.5,0.2
	c-3.7,0-7.4,0-11,0c-3.6,0-7.1,0.1-10.7,0.3c-2.3,0.1-4.7,0.5-7,0.7c-2.7,0.3-5.4,0.6-8.1,0.9c-3,0.4-6.1,0.8-9.1,1.1
	c-3.4,0.4-6.7,0.6-10.1,1c-7.3,0.8-14.7,0.4-22.1,0.6c-3,0.1-6,0-8.9,0.1c-4.1,0.1-8.2,0.3-12.3,0.4c-2.5,0.1-5,0.1-7.4,0.3
	c-4,0.3-8.1,0.5-12,1.6c-2.3,0.6-4.7,0.7-7.1,0.9c-2.4,0.2-4.8,0.2-7.2,0.3C82.1,313.5,81.8,313.5,81.4,313.4z"/>
<path d="M244.8,234c-0.3,0.5-0.6,0.8-0.7,1.2c-0.2,0.6-0.4,1.3-0.6,2c-0.7,2.7-1.4,5.4-2,8c-0.2,0.6-0.1,1.3-0.3,1.9
	c-0.2,1.1-0.6,2.2-0.8,3.4c-0.3,1.6-0.5,3.3-0.7,4.9c-0.2,1.7-1.2,3-2.5,4c-1.1,0.9-2.4,0.7-3.6,0c-1.3-0.8-2.3-1.9-3.1-3.1
	c-2-3.2-4.2-6.2-6.7-9c-0.9-1-1.7-2.2-2.4-3.4c-0.8-1.2-1.4-2.4-2.1-3.6c-0.3-0.5-0.6-0.9-1.1-1.5c-0.1,0.4-0.3,0.6-0.3,0.8
	c-0.1,2.1-0.1,4.2-0.1,6.3c0,0.7-0.2,1.5-0.1,2.2c0.4,4.5,0.7,9,1.2,13.4c0.3,2.6,1,5.2,1.5,7.8c0.3,1.8,0.8,3.6,1,5.4
	c0.2,2.2-0.2,3.2-2.8,3.7c-0.8,0.2-1.5,0.5-2.3,0.2c-0.1-0.1-0.4,0.1-0.6,0.2c-0.8,0.5-1.5,0.2-2.2-0.2c-0.5-0.4-1-0.8-1.4-1.2
	c-0.2-0.2-0.2-0.6-0.3-0.9c-0.2-1.6-0.3-3.1-0.5-4.7c-0.3-1.8-0.7-3.7-0.9-5.5c-0.3-2.5-0.6-5.1-0.8-7.6c-0.5-5.7-0.2-11.5,0-17.2
	c0.1-2,0.5-3.9,0.6-5.9c0.1-2,0.2-4,0.2-5.9c0-1.2-0.1-2.5,0.4-3.7c0.1-0.2,0.1-0.3,0.1-0.5c-0.3-1.2,0.5-1.9,1.3-2.4
	c0.8-0.6,1.7-0.3,2.7,0.1c1.5,0.6,2.4,1.7,3.2,2.9c1.3,2,2.4,4,3.8,5.9c2.7,3.6,5,7.5,7.2,11.4c0.9,1.5,1.7,3,2.7,4.5
	c0.4,0.6,1,0.9,1.6,1.3c0.9-1.1,1.5-2.8,1.7-4.3c0-0.4,0.2-0.8,0.3-1.2c0.9-3.6,1.8-7.1,2.7-10.7c0.7-2.7,1.5-5.2,2.8-7.6
	c0.8-1.4,1.8-2.6,3-3.6c0.6-0.5,1.4-0.7,2.2-0.8c0.8-0.1,1.3,0.5,1.7,1.1c1.5,2,2.3,4.4,3.1,6.7c0.9,2.8,1.8,5.6,2.6,8.4
	c0.5,1.6,1,3.2,1.5,4.9c0,0.2,0.1,0.3,0.1,0.5c-0.2,1.7,0.6,3.1,1,4.7c0.3,1.1,0.4,2.3,0.6,3.4c0.6,3.4,0.5,6.9,1.7,10.2
	c0.4,1.2,0.5,2.6,0.8,3.9c0.1,0.6,0.2,1.1,0.4,1.7c0.7,1.5-0.2,2.6-0.9,3.7c-0.1,0.2-0.4,0.3-0.6,0.4c-1.4,0.4-2.7,0.5-4.1,0.1
	c-0.9-0.2-1.5-0.8-1.9-1.5c-0.8-1.5-1.4-3.1-2.2-4.6c-0.1-0.2-0.1-0.4-0.2-0.6c-0.3-2.5-0.8-5-1-7.5c-0.2-2.6-0.4-5.3-0.8-7.9
	c-0.4-2.3-0.6-4.7-1-7c-0.2-1.4-0.6-2.8-1-4.2c-0.2-0.7-0.3-1.4-0.5-2C245.4,234.8,245.2,234.5,244.8,234z"/>
<path d="M155,286.6c0.3-1.4,0.6-2.8,0.9-4.2c0.9,0,1.6,0,2.4,0c4.8,0.1,9.6,0.1,14.4,0.2c5,0.2,10.1,0.6,15.1,0.9
	c6.1,0.5,12.2,0.4,18.3,0c3.3-0.2,6.5-0.7,9.7-1.1c3.5-0.4,7-0.8,10.5-1.1c6.9-0.7,13.9-1.3,20.8-1.9c2.7-0.2,5.4-0.3,8-0.4
	c4.8-0.1,9.6-0.2,14.4-0.3c4.2-0.1,8.4-0.6,12.6-0.5c2.9,0,5.5-0.9,8.3-1.4c4.1-0.8,8.3-1.3,12.5-1.4c2.7-0.1,5.4-0.3,8-0.6
	c3.3-0.3,6.6-0.4,9.9,0c1.2,0.2,2.5,0.6,3.8,0.1c0.1,0,0.3,0,0.4,0c1.7,0.4,3.4,0,5-0.2c2.9-0.5,5.9-0.6,8.9-0.5
	c0.7,0,1.4,0.1,2.1,0.3c2.9,0.9,5.8,0.8,8.7,0.7c1.2,0,2.5-0.2,3.7-0.3c2.6-0.3,5.2,0.1,7.8,0.4c0.4,0.1,0.9,0.1,1.3-0.1
	c0.9-0.4,1.8-0.4,2.7-0.3c2.5,0.3,5,0.1,7.5-0.2c3-0.3,6-0.5,9-0.7c5.2-0.3,10.5-0.5,15.7-0.7c2.5-0.1,5,0,7.5,0.1
	c5.2,0.2,10.4,0.5,15.6,0.8c0.2,0,0.3,0,0.5,0c1.6-0.4,3.2,0.1,4.7,0.2c0.4,0,0.8,0.1,1.1,0.3c0.3,0.3,0.7,0.6,0.8,1
	c0.3,1.2-0.8,2.4-2,2.4c-2.9,0-5.9,0.1-8.8,0c-2.8,0-5.5-0.2-8.3-0.3c-2.9,0-5.9,0.1-8.8,0.1c-1.4,0-2.8,0-4.2,0.1
	c-2.1,0.1-4.1,0.4-6.2,0.6c-3.9,0.4-7.7,0.7-11.6,0.7c-3.1,0-6.2,0.2-9.3-0.3c-0.2,0-0.3,0-0.5,0c-3.5,0.9-7.1,0.5-10.7,0.4
	c-0.2,0-0.3,0-0.5,0c-10.2-0.3-20.5-0.4-30.7-0.3c-1.8,0-3.6,0-5.3,0.1c-4,0.1-7.9,0.2-11.9,0.5c-4.9,0.3-9.8,0.8-14.7,1.2
	c-0.8,0.1-1.5,0.2-2.3,0.6c-0.4,0.3-1,0.3-1.5,0.4c-1.8,0.1-3.5,0.2-5.3,0.4c-3.1,0.3-6.3,0.5-9.4,0.9c-4.3,0.5-8.6,0.9-13,0.6
	c-1.5-0.1-3.1,0-4.6-0.4c-1-0.2-2-0.4-3-0.4c-3.7,0-7.3,0.2-11,0.6c-5.8,0.6-11.5,1.6-17.3,2.5c-1.9,0.3-3.8,0.4-5.7,0.5
	c-3.3,0.3-6.7,0.6-10,0.9c-1.2,0.1-2.4,0.2-3.6,0.2c-4.6,0-9.3,0.1-13.9,0c-3.5-0.1-6.9-0.4-10.4-0.6c-2.4-0.2-4.9-0.4-7.3-0.4
	c-6.2-0.1-12.5-0.1-18.7-0.2C156.6,286.6,155.9,286.6,155,286.6z M384.1,275.1C384.1,275.1,384,275,384.1,275.1
	c-0.4-0.1-0.7-0.1-1.1-0.1c0,0,0,0,0,0.1C383.4,275.1,383.7,275.1,384.1,275.1z"/>
<path d="M153,269.4c-0.5,0.1-0.5,0.4-0.3,0.8c0.5,1.3,0.6,2.8,0.8,4.2c0.3,1.9,0.1,3.9,0.1,5.8c-0.1,2.8-1,5.4-2.3,7.9
	c-1,2-2.5,3.5-4.2,5c-3.2,2.8-6.9,4.7-10.8,6.4c-4.2,1.8-8.6,2.8-13.1,2.7c-8.1-0.2-15.6-2.3-22-7.3c-3.4-2.6-6.2-5.8-8.5-9.4
	c-0.4-0.5-0.8-1.1-1-1.6c-0.2-0.5-0.4-1-0.5-1.5c-0.1-1.1-0.1-2.2-0.2-3.3c0-0.9,0.2-1.7,1.1-2.3c0.8-0.5,1.3-1.4,2.1-2.2
	c0.8,0.3,1.2,1,1.5,1.8c1.2,3.3,3,6.2,5.2,8.8c0.9,1,1.9,1.9,2.8,2.8c0.8,0.8,1.7,1.4,2.5,2.2c1.6,1.7,3.6,2.8,5.7,3.6
	c5.9,2.3,12,2.8,18.3,1.7c4.5-0.9,8.7-2.5,12.2-5.7c1.3-1.2,2.5-2.4,3.7-3.7c0.9-0.9,1.3-2,1.2-3.3c0-1.6,0-3.1,0-4.7
	c0-1.3-0.3-2.5-0.9-3.6c-1.4-2.7-2.7-5.4-4.2-8c-0.5-0.9-1.3-1.6-2-2.3c-3.2-3.1-7.1-5.1-11.2-6.7c-1.6-0.6-3.1-1.2-4.5-2.2
	c-0.7-0.5-1.5-0.8-2.2-1.2c-0.4-0.3-0.8-0.6-1.1-0.9c-0.2-0.2-0.4-0.3-0.6-0.4c-1.6-0.8-3.1-1.7-4.7-2.5c-1.4-0.7-2.8-1.3-4.3-2
	c-0.2-0.1-0.4,0-0.6-0.2c-1.9-1.7-4.3-2.5-6.3-4.1c-0.7-0.6-1-1.2-1-2c0.1-1.7,0.3-3.4,1.2-5c0.9-1.6,1.7-3.3,2.6-5
	c0.1-0.2,0.3-0.4,0.3-0.7c0.2-1.5,1.3-2.5,2-3.8c0.8-1.5,2.2-2.2,3.6-2.9c1.5-0.7,3.1-1.2,4.6-1.9c1.8-0.8,3.8-0.8,5.7-0.9
	c3.1-0.1,6.3,0.1,9.4,0c1.6,0,3.1-0.1,4.7-0.2c2.2-0.2,4.3-0.2,6.4,0.4c0.4,0.1,0.7,0.3,0.9,0.7c0.3,0.7,0.8,1.4,0.3,2.2
	c-0.4,0.6-0.9,1.1-1.5,1.4c-0.7,0.5-1.5,0.8-2.4,0.9c-3.2,0.3-6.4,0.8-9.6,1.1c-1.5,0.1-3-0.1-4.4-0.2c-2.2-0.1-4.4-0.2-6.5,0.3
	c-0.6,0.1-1.1,0.3-1.6,0.6c-1.6,1-3.3,2.1-4.8,3.2c-0.5,0.4-0.9,0.9-1.4,1.4c-0.4,0.4-0.7,0.8-1.1,1.2c-1,1-1.8,2-1.7,3.6
	c0.1,0.8,0.3,1.4,1,1.9c0.9,0.5,1.8,1.1,2.8,1.6c3.3,1.5,6.4,3.2,9.5,5.1c1.4,0.9,3.1,1.3,4.7,2c3.6,1.7,7.3,3.4,10.9,5.1
	c0.4,0.2,0.8,0.6,1.2,0.8c0.3,0.2,0.7,0.3,1,0.4c0.2,0.1,0.6,0.1,0.7,0.3c0.9,1.3,2.3,2.2,3.4,3.4c2,2,3.8,4.1,5.3,6.5
	c0.4,0.7,0.9,1.2,1.4,1.8c0.1,0.2,0.2,0.4,0.2,0.6C152.5,268.4,152.8,268.9,153,269.4z"/>
<path d="M365.1,240.7c0.8,0.2,1.7,0.4,2.5,0.5c3.6,0.6,7.3,1.2,10.9,1.8c2,0.3,4,0.7,6,1c2.7,0.5,5.3,1.1,7.8,2.2
	c1.5,0.7,2.9,1.6,3.9,2.9c0.8,0.9,0.8,2.4,0.1,3.3c-0.2,0.2-0.5,0.4-0.8,0.4c-2,0.5-4,0.1-5.8-0.6c-3-1-6-2-9.2-2.6
	c-4.3-0.9-8.6-1.7-12.9-2.4c-2.2-0.4-4.5-0.4-6.8-0.6c-1.3-0.1-2.5-0.3-3.8-0.6c-0.5-0.1-0.9-0.4-1.2-0.6c0-0.4,0-0.6,0-0.9
	c-0.1-2.1,0.9-3.5,2.5-4.7c2.1-1.6,4.3-3.1,6.2-4.9c2.2-2,4.1-4.3,5.4-7.1c0.6-1.3,0.7-2.7,0.7-4.1c-0.1-1.1-0.8-1.8-1.7-2.3
	c-1.3-0.7-2.7-1.2-4.2-1.4c-1.5-0.2-3,0-4.4,0.3c-1.2,0.3-2.4,0.3-3.5,1.1c-0.7,0.5-1.8,0.5-2.7,0.8c-1,0.3-1.1,0.3-1.1,1.4
	c0,1.6,0.2,3.1,0.3,4.7c0.2,2.3,0.4,4.5,0.7,6.8c0.2,1.6,0.4,3.3,0.4,4.9c0.1,1.3,0,2.5-0.1,3.8c0,0.2-0.1,0.4-0.1,0.6
	c0.7,3.1,0.5,6.2,1,9.3c0.3,1.4,0.4,2.8,0.7,4.3c0.1,0.4,0.3,0.8,0.4,1.2c-1.5,1.6-3.3,2.6-5.4,3.2c-1.3,0.4-2.7-0.6-3.3-1.9
	c-1-2.4-0.6-5-0.9-7.4c-0.4-3.7-0.3-7.3-0.1-11c0.2-2.8-0.1-5.4-0.6-8.1c-0.6-3.4-1.1-6.8-0.9-10.2c0-0.5-0.1-1.1-0.2-1.6
	c-0.1-1.6-0.2-3.1,0.9-4.5c0.8-1,1.9-1.2,3.1-0.6c0.3,0.1,0.6,0.3,0.9,0.2c1.2-0.2,2.4-0.3,3.5-0.6c2.7-0.8,5.5-1.2,8.3-1.1
	c1.7,0.1,3.5,0.2,5.2,0.3c2.1,0.2,4.1,0.9,6,1.8c2,0.9,3.4,2.5,4.2,4.5c0.5,1.2,0.4,2.5,0,3.8c-0.8,2.4-2,4.5-3.7,6.4
	c-1.8,2.1-3.6,4.2-5.8,5.9c-0.9,0.7-1.7,1.4-2.6,2.1C365.1,240.5,365.1,240.6,365.1,240.7z"/>
<path d="M167.1,234.6c-0.8-0.5-1.3-1.5-0.8-2.5c0.2-0.4,0.1-0.8,0.2-1.2c0.1-0.9,0.1-1.9,0.4-2.8c0.2-0.8,0.8-1.5,1.6-1.9
	c0.4-0.2,0.9-0.5,1.3-0.7c1-0.5,1.5-0.4,2.2,0.3c1.5,1.6,2.4,3.4,2.4,5.7c0,1.9-0.2,3.7-0.2,5.6c0,1.4-0.1,2.9,0,4.3
	c0,1.7,0.2,3.4,0.1,5.2c-0.2,2.1,0,4.3,0.2,6.4c0.3,3.3,0.7,6.6,1,9.8c0.2,1.5,0.3,3,0.6,4.5c0.3,1.3,1,2.3,2.4,2.9
	c1.4,0.6,2.7,0.7,4.2,0.4c0.9-0.2,1.4-0.6,1.8-1.3c1.8-3.3,3-6.9,3.9-10.5c0.4-1.6,0.9-3.3,1.1-4.9c0.3-2.2,0.3-4.4,0.4-6.7
	c0.2-5.1,0.4-10.2,0.6-15.4c0.1-1.9,0.2-3.9,0.1-5.8c0-1.7,1.4-3.2,2.7-3.5c0.4-0.1,0.8,0,1.2,0.2c0.6,0.3,1.2,0.7,1.8,1
	c0.7,0.4,1.3,1,1.5,1.9c0.1,0.6,0.3,1.2,0.3,1.8c0.2,2,0.5,4,0.5,6c0.1,1.8-0.1,3.6-0.2,5.4c-0.2,2.8-0.5,5.7-0.7,8.5
	c-0.2,2.3-0.3,4.7-0.5,7c-0.1,0.9-0.1,1.8-0.1,2.7c0,0.4,0,0.8-0.1,1.2c-0.5,2.2-0.7,4.5-1.9,6.5c-1.1,1.8-1.9,3.7-3,5.4
	c-1.2,1.9-2.7,3.6-4.5,4.9c-1.4,1-2.7,2.2-4.4,2.7c-0.4,0.7-1.2,0.8-1.9,1c-1.6,0.4-3,0.1-4.4-0.6c-2.1-1-3.4-2.8-4.3-4.9
	c-1.8-3.8-3-7.8-3.4-12c-0.4-4.3-0.6-8.6-0.7-13c0-2.2-0.4-4.4-0.6-6.5c-0.2-1.6-0.4-3.1-0.6-4.7
	C167.1,236.5,167.1,235.6,167.1,234.6z"/>
<path d="M288.4,234.9c-0.4,1.1-0.8,2.2-1.2,3.3c-1,2.6-2.2,5.1-3.9,7.3c-0.8,1.1-1.8,1.9-3.3,1.9c-0.9,0-1.6-0.2-2.3-0.8
	c-1.9-1.6-3.8-3.2-5.6-4.8c-0.4-0.3-0.7-0.6-1.3-1.1c0,0.6-0.1,1-0.1,1.3c0.3,3.5,0.5,6.9,0.9,10.4c0.4,3.6,0.9,7.2,1.4,10.8
	c0.2,1.3,0.6,2.5,0.8,3.8c0.2,1.4,0.3,2.9,0.4,4.3c0,0.4,0,0.8-0.6,0.8c-0.1,0-0.3,0.2-0.4,0.3c-0.1,0.1-0.2,0.3-0.2,0.3
	c-1.1-0.1-2.2-0.1-3.3-0.3c-0.2,0-0.6-0.6-0.6-0.9c0-1.3-0.6-2.4-0.9-3.6c-0.3-1.3-0.5-2.7-0.8-4c-0.6-2.5-0.8-5.1-1.1-7.7
	c-0.1-0.9-0.2-1.9-0.3-2.8c-0.3-2.4-0.4-4.8-1-7.1c-0.4-1.7-0.3-3.5-0.7-5.2c-0.4-1.7-0.8-3.4-1.1-5.1c-0.1-0.6-0.1-1.1-0.2-1.7
	c-0.1-0.9-0.2-1.9-0.3-2.8c-0.2-1.5-0.5-3-0.1-4.5c0-0.1,0.1-0.2,0.1-0.2c0-0.6-0.3-1.2,0.3-1.6c0.8-0.5,1.7-0.9,2.7-0.8
	c0.3,0,0.6,0.2,0.8,0.5c1.5,1.7,3,3.4,4.5,5.1c2.4,2.8,4.9,5.5,7.3,8.3c0.3,0.3,0.7,0.6,1.1,0.9c0.9-0.7,1.3-1.6,1.7-2.4
	c0.7-1.5,1.3-3,1.9-4.5c0.1-0.3,0.2-0.7,0.3-1.1c0.6-2.8,1.1-5.6,1.8-8.4c0.2-0.7,0.4-1.4,0.7-2.1c0.4-1.1,1.2-1.8,2.1-2.5
	c0.9-0.7,2.5-0.2,2.9,0.8c0.6,1.5,1.2,3.1,1.8,4.6c0.2,0.6,0.4,1.2,0.7,1.7c1.3,1.7,1.4,3.8,1.7,5.7c0.3,1.5,0.4,3.1,0.6,4.7
	c0.2,1.6,0.5,3.2,1.1,4.7c0.4,0.9,0.6,2,0.6,3c0,2.7,0.5,5.3,0.8,8c0.3,2.2,0.3,4.4,0.5,6.7c0,0.6,0.1,1.2,0.1,1.9
	c0.1,1.5-0.4,1.9-1.9,1.9c-1.4-0.1-2.2-0.8-2.8-2c-1-2.1-1.5-4.4-1.9-6.6c-1-5.1-1.8-10.3-2.8-15.5c-0.2-0.9-0.4-1.8-0.5-2.7
	C288.6,234.9,288.5,234.9,288.4,234.9z"/>
<path d="M339.9,219.5c-0.5,0-0.8,0-1.2,0c-0.7,0-1.3,0.1-1.9,0.2c-0.6,0-1.3,0.2-1.8,0.1c-2-0.4-3.9,0.1-5.8,0.4c-2,0.3-4,0.5-6,1
	c-2.5,0.6-4.9,1.3-7.4,2c-0.7,0.2-1.7,0.4-2.1,1c-0.3,0.5,0,1.4,0.1,2.1c0.1,1.7,0.2,3.5,0.3,5.2c0,0.4,0.1,0.9,0.1,1.4
	c0.4,0,0.6,0,0.9-0.1c2.4-0.8,4.9-1.5,7.3-2.3c2.4-0.9,4.9-1.5,7.5-1.3c0.8,0.1,1.6,0,2.5,0.1c0.3,0,0.7,0.1,0.7,0.3
	c0.4,1,1.2,2,0.7,3.1c-0.3,0.8-0.9,1.6-1.5,2.2c-0.3,0.3-1,0.4-1.5,0.5c-0.6,0.1-1.2,0-1.7,0c-1,0.1-2,0.3-3.1,0.4
	c-3.2,0.4-6.1,2.3-9.4,2.7c-0.6,0.1-0.9,0.5-1.1,1.1c-0.6,1.1-0.9,2.1-0.7,3.4c0.1,0.6,0.1,1.3,0,2c-0.3,2.5-0.1,5,0.1,7.5
	c0,0.6,0.2,1.1,0.3,1.6c2.1,0.4,3.9-0.3,5.7-0.8c2.9-0.8,5.7-1.5,8.6-2.3c1.1-0.3,2.3-0.4,3.4-0.6c0.7-0.1,1.3-0.2,1.9,0
	c0.4,0.1,0.8,0.1,1.2,0c0.8-0.3,1.4,0,2.1,0.3c0.6,0.3,1,0.8,0.8,1.5c-0.5,1.5-1,3-2.1,4.2c-0.4,0.4-0.9,0.7-1.5,0.7
	c-1.3,0.1-2.6,0.2-3.8,0.3c-3.5,0.3-6.8,1.5-10.1,2.5c-2.3,0.7-4.5,1.3-6.8,1.9c-0.7,0.2-1.4,0.3-2-0.2c-0.1-0.1-0.4-0.2-0.6-0.2
	c-0.8,0-1.3-0.4-1.7-1c-0.2-0.3-0.5-0.6-0.8-0.8c-0.3-2.4-0.7-4.9-1-7.4c-0.1-0.8,0-1.5,0-2.3c0-0.4,0-0.7,0-1.1
	c-0.1-1.3-0.4-2.6-0.1-3.8c0.3-1.6,0.1-3,0-4.5c0-0.6-0.2-1.1-0.4-1.7c-0.1-0.2-0.2-0.5-0.2-0.7c0.2-2.1,0-4.2-0.1-6.3
	c-0.1-1.7-0.2-3.4-0.3-5.1c-0.1-0.9-0.3-1.7-1.2-2.1c-0.3-0.1-0.5-0.3-0.7-0.5c-0.9-0.8-1-1.6-0.1-2.5c0.1-0.1,0.2-0.2,0.3-0.3
	c0.1-1,0.9-1.3,1.4-1.9c0.9-1,2-1.2,3.1-1c0.6,0.1,1.1,0,1.7-0.1c2.4-0.8,4.8-1.6,7.2-2.2c1.9-0.5,4-0.8,5.9-1.2
	c2.9-0.6,5.8-1.1,8.8-1.2c0.2,0,0.4,0,0.5,0c0.9-0.5,1.8-0.5,2.7,0.1c0.1,0.1,0.3,0.1,0.5,0.1c2-0.5,2.6,1.3,3.5,2.3
	c0.5,0.5,0.1,1.7-0.5,2.1C340.1,218.3,339.8,218.8,339.9,219.5z"/>
<path d="M425.6,198.3c-0.1,1.4-0.1,2.6-0.2,4c-0.3,0-0.7,0-1-0.1c-3.5-0.7-7.1-0.9-10.7-1c-4.6-0.2-9.2-0.4-13.9-0.6
	c-7.4-0.4-14.8-0.9-22.3-0.8c-6.4,0.1-12.7-0.1-19.1-0.3c-4.9-0.2-9.7-0.1-14.6,0.1c-7.6,0.3-15.2,1-22.8,0.8
	c-3.1-0.1-6.2-0.3-9.3-0.4c-3.4-0.2-6.8-0.4-10.3-0.6c-1.4-0.1-2.9-0.2-4.3-0.3c-0.2,0-0.3,0-0.5,0c-1.2-0.2-2-1-2-2
	c0-1,0.9-1.9,2.1-1.9c1.6,0,3.1,0.1,4.7,0.2c4.7,0.3,9.3,0.5,14,0.9c4.9,0.3,9.7,0.3,14.6,0.1c3.8-0.2,7.6-0.5,11.4-0.6
	c5-0.2,10-0.3,15-0.3c5.7,0,11.3,0.2,17,0.3c4.3,0.1,8.6,0,12.9,0.1c2.9,0.1,5.8,0.3,8.7,0.5c2.8,0.2,5.6,0.3,8.4,0.5
	c3.1,0.2,6.2,0.3,9.3,0.4c2.3,0.1,4.5,0.1,6.8,0.3C421.4,197.7,423.4,198,425.6,198.3z"/>
<path d="M78.7,223.9c-0.1-1.3-0.5-2.5-0.3-3.8c0.3-0.1,0.5-0.2,0.7-0.2c2.9,0,5.5-0.9,8.2-1.7c4.3-1.3,8.7-2.1,13.2-2.6
	c2.9-0.3,5.7-0.6,8.6-0.9c0.7-0.1,1.4-0.3,2-0.5c2.9-0.8,5.7-1.9,8.7-2.5c4.3-0.8,8.6-1.2,12.9-1.8c0.8-0.1,1.7-0.3,2.5-0.5
	c0.6-0.1,1.3-0.1,2,0c3.9,0.2,7.8,0.3,11.8,0.5c2,0.1,3.9-0.3,5.8-0.6c1.2-0.2,2.5-0.1,3.7-0.1c0.2,0,0.4,0,0.5,0.1
	c1.2,0.9,2.6,0.7,4,0.7c3.5,0.2,7.1,0.3,10.7,0.3c5.4-0.1,10.9-0.3,16.3-0.5c1.5,0,3.1-0.1,4.6,0c1.6,0.1,2.4,1.5,1.7,2.8
	c-0.3,0.5-0.8,0.9-1.4,1c-0.3,0.1-0.6,0.1-0.9,0.1c-3.2,0.1-6.4,0.1-9.7,0.2c-3.2,0.1-6.4,0.2-9.5,0.2c-3.8,0-7.7,0-11.5-0.2
	c-7.4-0.4-14.9-0.8-22.3-0.5c-2.3,0.1-4.7,0.4-7,0.7c-2.7,0.3-5.3,0.7-8,1c-4.8,0.5-9.5,1.3-14.1,3c-2.9,1-6.1,1.6-9.1,2.2
	c-4.5,0.9-9.1,1.8-13.6,2.6c-2.1,0.4-4.3,0.5-6.5,0.7C81.3,223.7,80.1,223.8,78.7,223.9z"/>
<path d="M425.8,212.8c-1.5-1-3-0.6-4.5-0.6c-3.9,0.1-7.8,0.2-11.8,0.3c-2.2,0.1-4.5,0.3-6.7,0.3c-2.6,0.1-5.2,0.1-7.8,0
	c-6.1-0.2-12.1-0.4-18.2-0.6c-3.3-0.1-6.6-0.4-9.9-0.6c-2.3-0.2-4.7-0.6-7-0.8c-1.6-0.2-3.2-0.4-4.8-0.4c-2.5,0-5,0.3-7.5,0.4
	c-3,0.2-6,0.2-9-0.3c-4.9-0.8-9.8-1-14.8-1.5c-1.4-0.1-2.9-0.3-4.3-0.4c-3.4-0.3-6.8,0.1-10.2,0.8c-2.8,0.6-5.6,1-8.4,1.4
	c-1.2,0.2-2.5,0.1-3.7,0.1c-1.7,0-2.2-0.8-2-2.5c0-0.1,0-0.2,0-0.3c0.3-0.2,0.7-0.4,1-0.7c0.7-0.9,1.7-1.1,2.8-1.1
	c2.1,0,4.2,0,6.3-0.1c1.6-0.1,3.1-0.3,4.7-0.6c1.8-0.4,3.6-0.7,5.5-0.7c3.1,0,6.3-0.1,9.4-0.2c3.4-0.1,6.8,0.5,10.2,0.8
	c3,0.3,5.9,0.6,8.9,0.9c3.1,0.4,6.2,0.6,9.4,0.5c0.2,0,0.4,0,0.6,0.1c2.4,1.1,5,0.9,7.5,1.1c6,0.6,12,0.7,18.1,0.5
	c4.7-0.2,9.4-0.2,14.1-0.7c4.1-0.4,8.2-0.2,12.2-0.1c4.9,0.1,9.7,0.7,14.5,1.6c1.4,0.2,2.8,0.4,4.2,0.5c1.3,0.2,1.4,0.2,1.2,1.5
	C425.9,212.1,425.9,212.3,425.8,212.8z"/>
<path d="M78.5,210.4c0.2-1.5,0.4-2.9,0.7-4.4c0.3,0,0.6-0.1,0.9-0.1c3.6,0.1,7.2-0.2,10.7-0.7c2.2-0.3,4.4-0.3,6.7-0.5
	c2.9-0.3,5.7-0.7,8.6-0.9c5.6-0.5,11.1-0.9,16.7-1.4c3.9-0.3,7.9-0.8,11.8-1.2c5.2-0.5,10.4-1,15.7-1.4c3.9-0.3,7.8-0.4,11.7-0.7
	c3.6-0.3,7.1-0.8,10.7-1.1c1.5-0.1,3-0.2,4.5-0.2c3.6,0,7.2,0,10.8,0c0.9,0,1.9-0.1,2.8-0.1c1.1,0,1.9,0.7,2,1.7
	c0.1,1.3-1,2.4-2.2,2c-0.8-0.2-1.6-0.1-2.4-0.1c-2.2,0.1-4.4,0.3-6.5,0.2c-5.3,0-10.6-0.1-15.8-0.2c-0.3,0-0.7,0-1,0.1
	c-1.8,0.7-3.6,0.7-5.5,0.9c-2.7,0.3-5.3,0.5-8,0.8c-2.3,0.2-4.7,0.5-7,0.7c-0.9,0.1-1.7,0.2-2.5,0.5c-1.9,0.7-3.9,0.6-5.9,0.8
	c-3,0.3-5.9,0.5-8.9,0.7c-2.5,0.2-5,0.4-7.5,0.6c-3.9,0.3-7.7,0.6-11.6,1c-2.6,0.2-5.2,0.6-7.9,0.9c-2.8,0.3-5.6,0.4-8.4,0.7
	c-1.8,0.2-3.5,0.4-5.3,0.6c-2.3,0.2-4.5,0.4-6.8,0.7C79.3,210.5,79,210.4,78.5,210.4z"/>
<path d="M425.5,233.2c0,2,0,3.8,0,5.7c-1.3-0.2-2.5-0.4-3.8-0.5c-3.9-0.5-7.7-0.9-11.6-0.7c-2.3,0.1-4.6,0-6.9-0.1
	c-3.5-0.2-6.9,0-10.4,0.2c-1.8,0.1-3.5,0.1-5.3,0.1c-2.3,0-4.6-0.2-7-0.3c-0.2-1.1-0.6-2.1-1.8-2.2c0-0.8,0-1.5,0-2.4
	c1.2-0.1,2.5-0.2,3.8-0.2c4-0.2,8.1-0.3,12.1-0.4c1.6,0,3.1,0.1,4.7,0.2c1.2,0.1,2.5,0.2,3.7,0.2c4.2,0.1,8.3,0.3,12.5,0.3
	c2.5,0,5-0.1,7.6-0.1C423.8,233,424.5,233.1,425.5,233.2z"/>
<path d="M379,220.4c-0.6-1.2-1.2-2.4-1.8-3.7c1.8-0.4,3.5-0.3,5.2-0.2c2.9,0.2,5.8,0.5,8.6,0.7c1,0.1,2.1,0,3.1-0.2
	c1.3-0.2,2.5-0.2,3.8-0.2c1.9,0,3.9,0,5.8-0.2c2.8-0.3,5.5-0.1,8.3,0.2c3,0.3,6.1,0.7,9.1,0.4c1.4-0.1,2.9,0,4.3,0
	c0,1.6,0,3.1,0,4.7c-0.6-0.1-1-0.1-1.4-0.2c-1.5-0.4-3.1-0.6-4.7-0.4c-1.4,0.1-2.8,0-4.2,0c-2.4,0-4.8,0-7.2,0
	c-5.3,0-10.6,0.1-15.9,0c-3.2-0.1-6.4-0.5-9.6-0.7C381.4,220.3,380.2,220.4,379,220.4z"/>
<path d="M113.1,253.9c-1.8,0.1-3.4,0.3-5,0.4c-3.2,0.1-6.3,0.5-9.5,0.9c-2,0.3-3.9,0.5-5.9,0.5c-3.9,0.1-7.8,0.1-11.6,0.2
	c-0.2,0-0.3,0-0.6-0.1c0-1.2,0-2.4,0-3.7c0.6-0.1,1.3-0.2,1.9-0.1c2.4,0.1,4.9-0.3,7.3-0.6c1.5-0.2,3-0.3,4.6-0.4
	c4.2-0.2,8.4-0.5,12.6-0.7c0.5,0,1,0.1,1.5,0.3c0.8,0.3,1.5,0.7,2.3,1C111.7,251.9,112.5,252.7,113.1,253.9z"/>
<path d="M421.5,262.6c0.2,0,0.5,0,0.7,0c0.3-0.1,0.7-0.1,1.1-0.1c1.1,0,2,0.3,2.7,0.7v-1.1c0-1.7-1.1-3.2-2.7-3.7
	c-0.3-0.1-0.6-0.2-0.9-0.3c-1.8-0.7-3.7-0.9-5.6-0.9c-3.3,0.1-6.6-0.1-9.8-0.9c-0.9-0.2-1.8-0.2-2.7-0.2c-0.9,0.1-1.7,0.8-1.6,1.7
	c0.3,3,2.2,2,1.3,2c-1,0,0.8,0.1,1.2,0.2c0.8,0.1,1.6,0.2,2.3,0.4c2.2,0.5,4.4,0.7,6.6,0.7C416.6,261.3,418.9,262.2,421.5,262.6
	C421.5,262.6,421.5,262.6,421.5,262.6z"/>
<path d="M103.8,233.3c-0.1,0.5-0.2,0.8-0.3,1c-0.3,0.6-0.7,1.1-0.9,1.8c-0.4,1.6-1.5,1.8-3,1.9c-5.8,0.2-11.5,1-17.3,0.9
	c-0.6,0-1.3,0.1-2.1,0.2c-0.1-1.3-0.1-2.5-0.2-3.8C87.9,234,95.7,233.4,103.8,233.3z"/>
<path d="M217,209.4c0.6,0.4,1.1,0.8,1.6,1.1c2.1,1.4,3.3,3.4,4.2,5.7c0.6,1.4,0.1,2.5-1.3,3.2c-0.8,0.4-1.7,0.8-2.5,1
	c-0.6,0.1-1.3,0-1.9-0.2c-1.2-0.5-2.2-1.2-3.3-1.9c-0.8-0.5-1-1.1-0.8-1.8c0.3-0.7,0.9-1,1.8-1c0.7,0,1.2,0.4,1.7,0.9
	c0.4,0.4,0.9,0.7,1.4,1c0.3,0.1,0.8,0.1,1.2,0c0.7-0.2,0.9-0.6,0.5-1.2c-0.6-1.1-1.2-2.3-2.6-2.7c-0.5-0.1-1-0.4-1.4-0.7
	c-2.2-1.4-2.3-3.9-0.2-5.5c0.6-0.4,1.2-0.7,1.8-1c0.3-0.1,0.6-0.2,1-0.2c0.7,0,1.3,0.4,1.4,1c0.2,0.6-0.1,1.2-0.7,1.6
	C218.3,208.8,217.8,209,217,209.4z"/>
<path d="M273.6,213c-0.2,0.9-0.3,1.8-0.5,2.7c-0.2,1-0.8,1.3-1.7,0.8c-0.6-0.3-0.9-0.8-0.9-1.5c0-0.3,0-0.7,0-1
	c0.1-1.8,0-3.5-0.4-5.3c-0.3-1.1-0.1-1.6,0.6-1.9c0.8-0.3,1.6-0.1,2.2,0.6c0.8,1,1.6,2.1,2.5,3.1c0.4,0.4,0.8,0.7,1.4,1.3
	c0.3-1,0.2-1.8,0-2.6c-0.2-0.9-0.3-1.8-0.4-2.7c-0.1-1.1,0.2-1.5,0.9-1.7c0.8-0.2,1.4,0.1,1.9,1c1,2.2,1.5,4.5,1,7
	c-0.4,1.9-1.8,2.8-3.5,2C275.7,214.2,274.7,213.6,273.6,213z"/>
<path d="M235.7,214.5c0,0.8,0,1.6,0,2.5c0,1-0.6,1.5-1.5,1.4c-0.7-0.1-1.2-0.6-1.3-1.4c-0.1-0.6-0.1-1.1-0.1-1.7
	c-1.2,0.3-2.3,0.5-3.5,0.8c0,0.1,0,0.4,0,0.7c-0.1,0.8-0.5,1.3-1.2,1.4c-0.7,0.1-1.3-0.2-1.6-0.9c-0.1-0.3-0.3-0.6-0.3-0.9
	c-0.3-2.3-0.6-4.7-0.8-7c-0.1-1.2,0.3-1.6,1.2-1.7c1-0.1,1.5,0.5,1.7,1.6c0.1,1.1,0.3,2.3,0.5,3.4c0,0.2,0.1,0.4,0.2,0.6
	c1.1-0.3,2.2-0.5,3.3-0.8c0-0.5,0-1-0.1-1.4c-0.1-0.4-0.3-0.9-0.4-1.3c-0.3-0.9-0.1-1.4,0.4-1.7c0.7-0.4,1.7-0.2,2.1,0.4
	c0.3,0.5,0.5,1,0.6,1.6c0.1,0.2,0,0.5,0.1,0.7c0.1,0.4,0.1,0.8,0.2,1.3c0.6,0.2,1.4,0.4,1.3,1.2C236.5,213.6,236,214,235.7,214.5z"
	/>
<path d="M284.6,212.6c1.2-0.2,2.1-0.6,2.7-1.7c-0.5-0.1-0.9-0.2-1.3-0.3c0-0.7,0-1.4,0-2.1c1-0.3,2-0.3,3-0.1
	c1.2,0.3,1.7,1.1,1.3,2.3c-0.1,0.4-0.3,0.9-0.4,1.3c0,0.2-0.1,0.3-0.1,0.5c-0.2,2.2-4.8,3.9-6.4,2.7c-0.4-0.3-0.9-0.8-1-1.3
	c-0.6-2.5-0.9-5,0.3-7.4c0.4-0.8,0.9-1.7,1.4-2.5c0.8-1.2,2.6-1.7,3.9-1.1c0.6,0.3,0.9,0.7,0.9,1.4c0,0.6-0.4,1.2-1,1.2
	c-0.9,0-1.2,0.7-1.6,1.3c-1.1,1.3-1.5,2.9-1.7,4.6C284.5,211.5,284.6,212,284.6,212.6z"/>
<path d="M257.3,207.1c1-0.1,1.7,0.3,2.3,0.7c0.5,0.3,0.7,0.8,0.6,1.4c-0.1,1.2-0.1,2.3-0.3,3.5c-0.5,3-2.9,3.8-5,2.9
	c-0.7-0.3-1.1-0.2-1.5,0.4c-0.1,0.2-0.3,0.4-0.5,0.6c-1.2,1.2-2.3,1.1-3.1-0.5c-0.7-1.5-1.5-3-2.2-4.4c-0.1-0.3-0.3-0.6-0.4-0.9
	c-0.2-0.9,0.1-1.7,0.8-2c0.8-0.3,1.8,0,2.2,0.8c0.3,0.5,0.4,1.1,0.6,1.6c0.2,0.5,0.4,1.1,0.7,1.6c0.5-0.3,1-0.6,1.4-0.8
	c1.2-0.6,1.6-0.6,2.5,0.4c0.1,0.1,0.3,0.3,0.5,0.5c0.8-0.4,1.2-1.1,1.2-1.9c0-1,0-2,0-3C257.2,207.7,257.2,207.4,257.3,207.1z"/>
<path d="M262.9,214.6c0-1.5,0-2.8,0-4.2c0-0.4,0-0.8-0.4-1.2c-1-1-0.4-2.8,0.9-3.1c1.1-0.3,2.2-0.4,3.3-0.7c0.2,0,0.5-0.1,0.7-0.1
	c0.7,0,1.3,0.5,1.4,0.9c0.1,0.6-0.2,1.4-0.8,1.7c-0.4,0.2-0.9,0.3-1.4,0.5c-0.4,1.8-0.7,3.6-1.1,5.6c0.5-0.2,0.8-0.3,1.1-0.3
	c0.6-0.1,1.1,0,1.5,0.6c0.4,0.5,0.3,1.2-0.1,1.7c-0.2,0.3-0.6,0.5-0.9,0.6c-1.1,0.4-2.3,0.7-3.4,1c-0.3,0.1-0.7,0-1.1-0.1
	c-0.6-0.2-1.1-0.6-1.1-1.3c0-0.7,0.4-1,1-1.2C262.7,214.8,262.8,214.7,262.9,214.6z"/>
<path d="M237,213.5c0-1.6,0.8-2.6,1.5-3.7c0.3-0.4,0.5-0.7,0.8-1.1c0.7-0.8,1.7-1.1,2.7-0.9c1.7,0.3,3.1,1.2,4.1,2.8
	c0.7,1.1,0.6,2.4-0.5,3.3c-1.2,1-2.4,2-4,2.4c-1.2,0.3-2.4,0.1-3.4-0.6C237.4,215.1,236.9,214.3,237,213.5z M241.8,210.6
	c-1.1,0.6-1.7,1.3-2.1,2.2c-0.1,0.3-0.2,0.8,0,1c0.2,0.2,0.7,0.2,1,0.1c1.1-0.4,2-1,2.7-2.1C242.9,211.5,242.4,211.1,241.8,210.6z"
	/>
<path d="M262.8,198.5c0.5-0.6,0.9-1.1,1.2-1.5c0.6-0.9,1.2-1,2-0.3c0.4,0.4,0.8,0.8,1.2,1.1c0.9,0.7,1.7,0.4,1.9-0.7
	c0.2-0.8,0.2-1.6,0.3-2.5c0-0.7,0-1.4,0-2.2c0.8-0.1,1.4-0.1,2.2-0.2c0.1,2.1,0.2,4-0.3,5.9c-0.6,2-2.7,2.7-4.6,1.7
	c-0.4-0.2-0.7-0.4-1.1-0.7c-0.2,0.2-0.3,0.3-0.5,0.5c-0.4,0.4-0.7,0.8-1.1,1.2c-1.5,1.7-2.8,1-3.2-0.7c-0.4-1.3-0.7-2.7-1.6-3.8
	c-0.1-0.1-0.1-0.3-0.2-0.5c-0.1-0.5-0.2-1,0.3-1.3c0.5-0.3,1.1-0.2,1.4,0.3c0.5,0.6,1,1.3,1.4,2
	C262.5,197.2,262.6,197.8,262.8,198.5z"/>
<path d="M239.6,198.1c0.7-1.6,0-3,0.1-4.5c0.4-0.1,0.7-0.2,1-0.2c0.4-0.1,0.7,0.1,0.9,0.5c0.6,1.6,0.8,3.3,0.4,5
	c-0.4,1.5-1.1,1.9-2.6,1.2c-1-0.5-2-1.2-3-1.7c-0.6-0.3-1.1-0.6-1.9-1.1c0,0.9,0.1,1.6,0.1,2.3c0,0.5,0.1,0.9,0.1,1.4
	c0,0.3-0.2,0.7-0.4,0.8c-0.2,0.1-0.7,0-0.9-0.2c-0.3-0.3-0.6-0.7-0.7-1.1c-0.2-1.6-0.3-3.3-0.4-4.9c0-0.7,0.4-0.9,1.2-0.6
	c2,0.7,3.8,1.8,5.5,3C239.1,197.9,239.3,198,239.6,198.1z"/>
<path d="M81.4,271.9c0-1.3,0-2.6,0-4c2.5-0.2,4.9-0.5,7.4-0.7c1.2-0.1,2,0.8,2.9,1.5c0.5,0.4,0.3,1.1-0.4,1.4
	c-0.7,0.4-1.6,0.8-2.4,0.9c-2.2,0.4-4.5,0.6-6.7,0.9C81.9,272,81.7,271.9,81.4,271.9z"/>
<path d="M250.2,200.9c-0.2,0-0.5,0-0.9-0.1c-1.7-0.4-2.4-2-1.4-3.5c0.9-1.3,2.1-2.2,3.6-2.7c2.2-0.7,4,1.2,3.9,3.1
	c0,1-0.8,1.8-1.7,2.3C252.8,200.6,251.6,200.9,250.2,200.9z M249.9,198.8c1.1,0,1.9-0.2,2.7-0.8c1-0.8,1-1.3-0.3-1.9
	C251.9,197.3,250.3,197.3,249.9,198.8z"/>
<path d="M88.9,284.3c-2.6,0.1-5.1,0.2-7.8,0.4c0.1-1.3,0.1-2.6,0.2-4c2.4-0.1,4.6-0.2,6.9-0.4C88.5,281.7,88.7,283,88.9,284.3z"/>
<path class="st0" d="M384.1,275.1c-0.4,0-0.7,0-1.1,0c0,0,0,0,0-0.1C383.3,275,383.7,275,384.1,275.1
	C384,275,384.1,275.1,384.1,275.1z"/>
</svg>
